<svg width="99" height="100" viewBox="0 0 99 100" fill="none" xmlns="http://www.w3.org/2000/svg">
<g clip-path="url(#clip0)">
<path d="M83.0902 0H15.8758C10.1849 0.0064553 5.57328 4.62684 5.56683 10.3285V88.825C5.57328 94.5266 10.1849 99.147 15.8758 99.1534H83.0902C88.7811 99.147 93.3927 94.5266 93.3991 88.825V10.3285C93.3927 4.62684 88.7811 0.0064553 83.0902 0ZM89.2756 88.825C89.2715 92.2463 86.505 95.018 83.0902 95.022H15.8758C12.4609 95.018 9.69444 92.2463 9.69042 88.825V10.3285C9.69444 6.90717 12.4609 4.13543 15.8758 4.13139H83.0902C86.505 4.13543 89.2715 6.90717 89.2756 10.3285V88.825Z" fill="#BB3C0D"/>
<path d="M18.9685 30.056H78.8635C80.0023 30.056 80.9253 29.1313 80.9253 27.9903V14.3567C80.9253 13.2157 80.0023 12.291 78.8635 12.291H18.9685C17.8297 12.291 16.9067 13.2157 16.9067 14.3567V27.9903C16.9067 29.1313 17.8297 30.056 18.9685 30.056ZM21.0303 16.4224H76.8017V25.9246H21.0303V16.4224Z" fill="#BB3C0D"/>
<path d="M32.1639 36.1494H18.9685C17.8297 36.1494 16.9067 37.0741 16.9067 38.2151V48.4403C16.9067 49.5813 17.8297 50.506 18.9685 50.506H32.1639C33.3027 50.506 34.2257 49.5813 34.2257 48.4403V38.2151C34.2257 37.0741 33.3027 36.1494 32.1639 36.1494ZM30.1021 46.3746H21.0303V40.2808H30.1021V46.3746Z" fill="#BB3C0D"/>
<path d="M32.1639 54.3276H18.9685C17.8297 54.3276 16.9067 55.2524 16.9067 56.3933V66.6185C16.9067 67.7595 17.8297 68.6842 18.9685 68.6842H32.1639C33.3027 68.6842 34.2257 67.7595 34.2257 66.6185V56.3933C34.2257 55.2524 33.3027 54.3276 32.1639 54.3276ZM30.1021 64.5528H21.0303V58.459H30.1021V64.5528Z" fill="#BB3C0D"/>
<path d="M32.1639 72.5059H18.9685C17.8297 72.5059 16.9067 73.4306 16.9067 74.5716V84.7968C16.9067 85.9377 17.8297 86.8624 18.9685 86.8624H32.1639C33.3027 86.8624 34.2257 85.9377 34.2257 84.7968V74.5716C34.2257 73.4306 33.3027 72.5059 32.1639 72.5059ZM30.1021 82.7311H21.0303V76.6373H30.1021V82.7311Z" fill="#BB3C0D"/>
<path d="M56.2869 36.1494H42.6791C41.5403 36.1494 40.6173 37.0741 40.6173 38.2151V48.4403C40.6173 49.5813 41.5403 50.506 42.6791 50.506H56.2869C57.4257 50.506 58.3487 49.5813 58.3487 48.4403V38.2151C58.3487 37.0741 57.4257 36.1494 56.2869 36.1494ZM54.2251 46.3746H44.7409V40.2808H54.2251V46.3746Z" fill="#BB3C0D"/>
<path d="M56.2869 54.3276H42.6791C41.5403 54.3276 40.6173 55.2524 40.6173 56.3933V66.6185C40.6173 67.7595 41.5403 68.6842 42.6791 68.6842H56.2869C57.4257 68.6842 58.3487 67.7595 58.3487 66.6185V56.3933C58.3487 55.2524 57.4257 54.3276 56.2869 54.3276ZM54.2251 64.5528H44.7409V58.459H54.2251V64.5528Z" fill="#BB3C0D"/>
<path d="M56.2869 72.5059H42.6791C41.5403 72.5059 40.6173 73.4306 40.6173 74.5716V84.7968C40.6173 85.9377 41.5403 86.8624 42.6791 86.8624H56.2869C57.4257 86.8624 58.3487 85.9377 58.3487 84.7968V74.5716C58.3487 73.4306 57.4257 72.5059 56.2869 72.5059ZM54.2251 82.7311H44.7409V76.6373H54.2251V82.7311Z" fill="#BB3C0D"/>
<path d="M79.9975 36.1494H66.802C65.6632 36.1494 64.7402 37.0741 64.7402 38.2151V48.4403C64.7402 49.5813 65.6632 50.506 66.802 50.506H79.9975C81.1363 50.506 82.0593 49.5813 82.0593 48.4403V38.2151C82.0593 37.0741 81.1363 36.1494 79.9975 36.1494ZM77.9357 46.3746H68.8638V40.2808H77.9357V46.3746Z" fill="#BB3C0D"/>
<path d="M79.9975 54.3276H66.802C65.6632 54.3276 64.7402 55.2524 64.7402 56.3933V84.7966C64.7402 85.9376 65.6632 86.8623 66.802 86.8623H79.9975C81.1363 86.8623 82.0593 85.9376 82.0593 84.7966V56.3933C82.0593 55.2524 81.1363 54.3276 79.9975 54.3276ZM77.9357 82.731H68.8638V58.459H77.9357V82.731Z" fill="#BB3C0D"/>
</g>
<defs>
<clipPath id="clip0">
<rect width="98.966" height="99.1534" fill="white"/>
</clipPath>
</defs>
</svg>
