<svg width="100" height="100" viewBox="0 0 100 100" fill="none" xmlns="http://www.w3.org/2000/svg">
<g clip-path="url(#clip0)">
<path d="M94.99 0C92.2293 0 89.9912 2.23791 89.9912 4.99874H33.3387C33.3387 2.23811 31.1006 0 28.34 0C25.5793 0 23.3412 2.23791 23.3412 4.99874H16.6763C16.6763 2.23811 14.4384 0 11.6776 0C8.91675 0 6.67884 2.23791 6.67884 4.99874H5.01266C2.25202 4.99874 0.013916 7.23685 0.013916 9.99748C0.013916 12.7581 2.25183 14.9962 5.01266 14.9962H6.67884V24.9937H5.01266C2.2532 24.9966 0.016845 27.233 0.013916 29.9924V59.9849C0.016845 62.7443 2.2532 64.9807 5.01266 64.9836H10.0114V66.6498C10.0143 69.4093 12.2507 71.6456 15.0101 71.6485V74.9811C12.2495 74.9811 10.0114 77.2192 10.0114 79.9798C10.0114 82.7405 12.2493 84.9786 15.0101 84.9786V88.3111C15.0099 88.753 15.1855 89.1769 15.4981 89.4896C15.8105 89.802 16.2344 89.9775 16.6765 89.9775C18.5171 89.9775 20.0091 91.4695 20.0091 93.3101C20.0091 95.1506 18.5171 96.6426 16.6765 96.6426C14.836 96.6426 13.344 95.1506 13.344 93.3101C13.344 92.3898 12.598 91.6439 11.6778 91.6439C10.7575 91.6439 10.0116 92.3898 10.0116 93.3101C9.99831 96.7766 12.6453 99.6745 16.0989 99.9748C19.5527 100.275 22.66 97.8775 23.2454 94.4606C23.831 91.0437 21.6991 87.7484 18.3425 86.8816V84.9786C21.1031 84.9786 23.3412 82.7407 23.3412 79.9798C23.3412 77.219 21.1033 74.9811 18.3425 74.9811V71.6485C21.102 71.6456 23.3383 69.4093 23.3412 66.6498V64.9836H28.34C31.0994 64.9807 33.3358 62.7443 33.3387 59.9849V29.9924C33.3358 27.233 31.0994 24.9966 28.34 24.9937H26.6738V14.9962H33.3387V19.995C33.3385 20.4368 33.5141 20.8608 33.8267 21.1734C34.1391 21.4858 34.563 21.6613 35.0051 21.6613H37.665L83.3263 65.6918V68.3162C83.3261 68.7581 83.5016 69.182 83.8143 69.4946C84.1269 69.8072 84.5506 69.9826 84.9927 69.9826H89.9914V98.3088C89.9912 98.7507 90.1668 99.1746 90.4794 99.4872C90.7918 99.7996 91.2157 99.9752 91.6578 99.9752H98.3227C98.7646 99.9754 99.1885 99.7998 99.5011 99.4872C99.8136 99.1748 99.9891 98.7509 99.9891 98.3088V4.99874C99.9887 2.23791 97.7506 0 94.99 0ZM6.67884 61.6511H5.01266C4.09277 61.6501 3.34726 60.9048 3.34647 59.9849V29.9924C3.34745 29.0726 4.09277 28.327 5.01266 28.3263H6.67884V61.6511ZM6.67884 11.6637H5.01266C4.09238 11.6637 3.34647 10.9178 3.34647 9.99748C3.34647 9.0772 4.09238 8.3313 5.01266 8.3313H6.67884V11.6637ZM11.6776 3.33256C12.5975 3.33353 13.343 4.07885 13.3438 4.99874H10.0114C10.0122 4.07885 10.7577 3.33334 11.6776 3.33256ZM20.0089 79.9798C20.0079 80.8997 19.2626 81.6452 18.3427 81.646H15.0101C14.0899 81.646 13.344 80.9001 13.344 79.9798C13.344 79.0596 14.0899 78.3137 15.0101 78.3137H18.3427C19.2624 78.3144 20.0079 79.06 20.0089 79.9798ZM20.0089 66.6498C20.0079 67.5697 19.2626 68.3152 18.3427 68.316H15.0101C14.0902 68.315 13.3447 67.5697 13.344 66.6498V64.9836H20.0089V66.6498ZM23.3412 61.6511H21.6751H10.0114V54.9861H23.3414V61.6511H23.3412ZM23.3412 51.6536H10.0114V28.3263H23.3414V51.6536H23.3412ZM23.3412 24.9937H10.0114V21.6611H23.3414V24.9937H23.3412ZM23.3412 18.3288H10.0114V14.9962H23.3414V18.3288H23.3412ZM23.3412 11.6637H10.0114V8.3313H23.3414V11.6637H23.3412ZM28.34 28.3263C29.2599 28.3272 30.0054 29.0728 30.0062 29.9924V59.9849C30.0052 60.9048 29.2597 61.6503 28.34 61.6511H26.6738V28.3263H28.34ZM28.34 3.33256C29.2599 3.33353 30.0054 4.07885 30.0062 4.99874H26.6736C26.6748 4.07885 27.4201 3.33334 28.34 3.33256ZM36.6713 18.3288V14.9962H50.0013V18.3288H36.6713ZM83.3261 61.0621L42.4661 21.6611H47.6669L83.3261 55.6989V61.0621ZM89.9912 66.6498H86.6587V51.6536H89.9912V66.6498ZM89.9912 48.3212H84.9925C84.5506 48.321 84.1267 48.4966 83.8141 48.8092C83.5017 49.1216 83.3261 49.5455 83.3261 49.9876V51.092L52.3402 21.5143C52.9431 21.2493 53.3327 20.6536 53.3339 19.995V14.9962H89.9912V48.3212ZM89.9912 11.6637H26.6738V8.3313H89.9912V11.6637ZM96.6562 96.6422H93.3236V4.99874C93.3236 4.07846 94.0695 3.33256 94.9898 3.33256C95.91 3.33256 96.656 4.07846 96.656 4.99874V96.6422H96.6562Z" fill="#BB3C0D"/>
</g>
<defs>
<clipPath id="clip0">
<rect width="100" height="100" fill="white"/>
</clipPath>
</defs>
</svg>
