<svg width="105" height="101" viewBox="0 0 105 101" fill="none" xmlns="http://www.w3.org/2000/svg">
<g clip-path="url(#clip0)">
<path d="M95.5166 4.3279C95.1552 4.11502 94.7389 4.00171 94.3146 4.00171H25.7766C19.8842 4.00171 15.0905 8.53399 15.0905 14.0886L14.6877 70.4409H2.30156C1.03031 70.4409 0 71.4246 0 72.6384V82.7905C0.00809142 90.2456 6.33559 96.2869 14.1438 96.2955C14.302 96.2955 14.4612 96.2801 14.6167 96.2491H71.8006C72.1414 96.2723 72.4848 96.2878 72.8309 96.2878C80.7605 96.274 87.1815 90.1349 87.1842 82.5639V49.6224H102.698C103.969 49.6224 105 48.6387 105 47.4249V14.8045C104.972 9.55891 100.949 5.11332 95.5166 4.3279ZM4.60312 82.7914V74.8367H58.4776V82.5647C58.4749 86.0077 59.8316 89.3245 62.2779 91.8542H13.8291C13.7204 91.8551 13.6125 91.8628 13.5055 91.8782C8.4987 91.5529 4.60942 87.5829 4.60312 82.7914ZM82.5811 14.8045V82.5639C82.5766 85.0206 81.5544 87.3743 79.7374 89.1125C77.9978 90.8164 75.6342 91.8113 73.1438 91.8868C73.0197 91.8662 72.8939 91.8559 72.7671 91.8551H71.958C66.9449 91.3838 63.114 87.3751 63.0808 82.5656V72.6384C63.0808 71.4255 62.0505 70.4409 60.7792 70.4409H19.2909L19.6936 14.1041C19.7269 10.9263 22.4474 8.37262 25.7766 8.39665H84.8674C83.3849 10.2327 82.5802 12.486 82.5811 14.8045ZM100.397 45.2275H87.1842V14.8045C87.2445 11.3615 90.1844 8.60181 93.7904 8.60181C97.3965 8.60181 100.336 11.3615 100.397 14.8045V45.2275Z" fill="#BB3C0D"/>
<path d="M29.549 27.808H51.3473C52.6186 27.808 53.6489 26.8243 53.6489 25.6106C53.6489 24.3968 52.6186 23.4131 51.3473 23.4131H29.549C28.2777 23.4131 27.2474 24.3968 27.2474 25.6106C27.2474 26.8243 28.2777 27.808 29.549 27.808Z" fill="#BB3C0D"/>
<path d="M70.2111 39.1255H29.549C28.2777 39.1255 27.2474 40.1092 27.2474 41.323C27.2474 42.5359 28.2777 43.5204 29.549 43.5204H70.2111C71.4824 43.5204 72.5127 42.5359 72.5127 41.323C72.5127 40.1092 71.4824 39.1255 70.2111 39.1255Z" fill="#BB3C0D"/>
<path d="M70.2111 54.8364H29.549C28.2777 54.8364 27.2474 55.821 27.2474 57.0339C27.2474 58.2477 28.2777 59.2314 29.549 59.2314H70.2111C71.4824 59.2314 72.5127 58.2477 72.5127 57.0339C72.5127 55.821 71.4824 54.8364 70.2111 54.8364Z" fill="#BB3C0D"/>
</g>
<defs>
<clipPath id="clip0">
<rect width="105" height="100.251" fill="white"/>
</clipPath>
</defs>
</svg>
