<svg width="100" height="101" viewBox="0 0 100 101" fill="none" xmlns="http://www.w3.org/2000/svg">
<path d="M91.5555 0.480469H8.44451C3.78276 0.487544 0.00560885 5.25217 0 11.1327V66.4181C0.00480758 72.2986 3.78276 77.0642 8.44451 77.0703H48.3586V89.8369C48.3586 97.1648 58.7582 101 69.0296 101C74.2178 101 79.1367 100.068 82.8802 98.3776C88.4979 95.8427 89.7999 92.4082 89.9033 89.9754C89.9049 89.9289 89.9065 89.8834 89.9065 89.8369V77.0703H91.5555C96.2164 77.0642 99.9944 72.2986 100 66.4191V11.1327C99.9944 5.25217 96.2164 0.487544 91.5555 0.480469ZM52.4611 70.9472C56.4578 73.7621 62.8422 75.2095 69.1786 75.2095C75.4669 75.2095 81.8009 73.7843 85.804 71.0119V76.5952H85.691C85.691 77.0783 84.9491 78.6763 81.5597 80.2511C78.2257 81.7985 73.7562 82.6516 68.9735 82.6516C58.2895 82.6516 52.4611 78.6511 52.4611 76.5972V70.9472ZM85.804 63.5536V64.4077C85.042 66.3817 79.4108 70.0335 69.1786 70.0335C58.1492 70.0335 52.4611 65.7904 52.4611 63.9792C52.4611 62.1679 58.1492 57.9228 69.1786 57.9228C79.4116 57.9228 85.0428 61.5756 85.804 63.5496V63.5536ZM76.1865 53.3533C73.8644 52.9469 71.5231 52.7448 69.1786 52.7488C61.678 52.7488 54.1109 54.7774 50.5164 58.7021L25.9048 58.7738C24.8207 52.6073 20.5548 48.3228 14.5814 47.4334V30.1194C17.6053 29.6706 20.2247 28.3435 22.2366 26.223C24.0723 24.3137 25.3576 21.6959 25.8952 18.7728H74.2226C75.2097 24.1884 78.825 29.1592 85.4194 30.1214V47.4344C81.4964 48.0226 78.2521 50.1017 76.1865 53.3533ZM69.0296 95.8245C64.2877 95.8245 59.8551 94.9785 56.5491 93.4432C53.5708 92.0605 52.4611 90.4969 52.4611 89.8369V83.6583C53.3184 84.2526 54.2118 84.761 55.1325 85.1794C58.8287 86.8866 63.7437 87.8265 68.9735 87.8265C74.2274 87.8265 79.2008 86.8613 82.9772 85.1077C83.9523 84.6619 84.8978 84.1161 85.804 83.4773V89.7449C85.6293 91.8372 79.6383 95.8245 69.0296 95.8245ZM95.8975 66.4181C95.8943 69.4422 93.9521 71.8922 91.5555 71.8953H89.9065V65.1486C89.9674 64.7635 89.9986 64.3713 89.9986 63.9792C89.9986 59.5956 86.2976 56.4552 81.123 54.6288C82.772 53.2633 84.9667 52.4911 87.5035 52.4395C88.6229 52.4163 89.5211 51.2651 89.5211 49.8521V27.6987C89.5211 26.2857 88.6229 25.1344 87.5035 25.1112C81.9612 24.999 78.2513 21.4472 78.051 16.064C77.9997 14.6834 77.0975 13.5968 76.0022 13.5968H24.1132C23.0179 13.5968 22.1157 14.6834 22.0644 16.063C21.8649 21.4452 18.1085 24.997 12.4965 25.1112C11.3763 25.1334 10.4781 26.2857 10.4781 27.6987V49.8521C10.4781 51.2651 11.3763 52.4163 12.4965 52.4395C18.1999 52.5558 21.8657 56.0206 22.0644 61.4847C22.1141 62.8653 23.0171 63.9539 24.1132 63.9539H24.118L48.3602 63.8821C48.3602 63.9145 48.3586 63.9468 48.3586 63.9792C48.3586 64.055 48.361 64.1298 48.3634 64.2046C48.3618 64.246 48.3586 64.2874 48.3586 64.3299V71.8953H8.44451C6.04793 71.8912 4.10567 69.4422 4.10247 66.4181V11.1327C4.10487 8.10953 6.04713 5.6595 8.44451 5.65545H91.5555C93.9521 5.6595 95.8943 8.10953 95.8975 11.1327V66.4181Z" fill="#BB3C0D"/>
<path d="M49.9994 23.2129C43.1863 23.2129 37.6631 30.1802 37.6631 38.7749C37.6631 47.3696 43.1863 54.3369 49.9994 54.3369C56.8125 54.3369 62.3356 47.3696 62.3356 38.7749C62.3284 30.1843 56.8093 23.223 49.9994 23.2129ZM49.9994 49.1617C45.4522 49.1617 41.7656 44.5111 41.7656 38.7749C41.7656 33.0377 45.4522 28.3881 49.9994 28.3881C54.5474 28.3881 58.234 33.0387 58.2332 38.7749C58.2284 44.5091 54.545 49.1556 49.9994 49.1617Z" fill="#BB3C0D"/>
</svg>
