<svg width="102" height="102" viewBox="0 0 102 102" fill="none" xmlns="http://www.w3.org/2000/svg">
<path d="M91.9372 0.169922H56.9678C51.434 0.175307 46.9495 4.28659 46.9436 9.35996V42.6388C46.9436 43.4663 47.4292 44.23 48.2152 44.6384C49.0003 45.0458 49.9646 45.0351 50.7389 44.6097L63.8037 37.4246H91.9372C97.4711 37.4192 101.956 33.3079 101.961 28.2345V9.35996C101.956 4.28659 97.4711 0.175307 91.9372 0.169922ZM96.9493 28.2345C96.9464 30.7717 94.7036 32.8269 91.9372 32.8296H63.1097C62.6554 32.8296 62.21 32.9426 61.8204 33.1571L51.9557 38.5814V9.35996C51.9587 6.82372 54.2014 4.76763 56.9678 4.76494H91.9372C94.7036 4.76763 96.9464 6.82372 96.9493 9.35996V28.2345Z" fill="#BB3C0D"/>
<path d="M27.785 68.3862C12.4471 68.4033 0.0176209 79.7985 0 93.86V99.0887C0 100.358 1.12185 101.386 2.50606 101.386H53.0649C54.4481 101.386 55.5709 100.358 55.5709 99.0887V93.86C55.5533 79.7985 43.1228 68.4024 27.785 68.3862ZM50.5588 96.7912H5.01212V93.86C4.98471 86.3841 9.31941 79.4664 16.3765 75.7213C23.4336 71.9761 32.1363 71.9761 39.1934 75.7213C46.2505 79.4664 50.5852 86.3841 50.5588 93.86V96.7912Z" fill="#BB3C0D"/>
<path d="M27.785 65.5161C36.8088 65.5161 44.1243 58.8095 44.1243 50.5369C44.1243 42.2642 36.8088 35.5576 27.785 35.5576C18.7612 35.5576 11.4457 42.2642 11.4457 50.5369C11.4555 58.8059 18.7651 65.5071 27.785 65.5161ZM27.785 40.1525C34.0413 40.1525 39.1122 44.8013 39.1122 50.5369C39.1122 56.2724 34.0413 60.9212 27.785 60.9212C21.5287 60.9212 16.4578 56.2724 16.4578 50.5369C16.4647 44.8049 21.5326 40.1597 27.785 40.1534V40.1525Z" fill="#BB3C0D"/>
</svg>
