<svg width="100" height="100" viewBox="0 0 100 100" fill="none" xmlns="http://www.w3.org/2000/svg">
<g clip-path="url(#clip0)">
<path d="M99.9553 1.91084C99.9447 1.79443 99.9215 1.67939 99.8861 1.56787C99.8414 1.45928 99.785 1.35576 99.7178 1.25947C99.6865 1.19092 99.6502 1.12471 99.6096 1.06123C99.5939 1.04248 99.5709 1.03525 99.5545 1.01729C99.4711 0.934668 99.3793 0.861035 99.2803 0.797949C99.2033 0.735254 99.1209 0.679785 99.0342 0.632129C98.942 0.596387 98.8465 0.568848 98.7494 0.550293C98.6375 0.514746 98.5221 0.491504 98.4053 0.480762C98.3803 0.47959 98.359 0.466309 98.3336 0.466309C98.2572 0.475879 98.1818 0.491113 98.1078 0.511816C97.9928 0.522363 97.8793 0.545215 97.7693 0.580176C97.6604 0.624902 97.5572 0.681152 97.4609 0.748145C97.3916 0.77959 97.3248 0.816113 97.2607 0.857129L1.03359 81.5985L0.584375 81.9819C0.566797 81.9968 0.560352 82.0182 0.54375 82.0337C0.461914 82.1179 0.389453 82.2104 0.327344 82.3101C0.264649 82.387 0.20918 82.4692 0.161328 82.5561C0.127539 82.6468 0.101563 82.7401 0.0837892 82.8352C0.0474611 82.9493 0.0238283 83.0671 0.0130861 83.1862C0.0117189 83.2087 1.62767e-07 83.2272 1.62767e-07 83.2499V97.8665C-0.00019515 98.3085 0.175391 98.7325 0.488086 99.0452C0.800586 99.3577 1.22461 99.5333 1.6668 99.5333H98.3334C98.7754 99.5335 99.1994 99.3579 99.5121 99.0452C99.8246 98.7327 100 98.3087 100 97.8665V2.1333C99.9904 2.05811 99.9756 1.98389 99.9553 1.91084ZM96.6666 96.1999H3.3334V91.1999H96.6668V96.1999H96.6666ZM96.6666 87.8665H11.7277L15.7004 84.5331H96.6668V87.8665H96.6666ZM19.6725 81.1999L48.3334 57.1493V81.1999H19.6725ZM51.6666 81.1999V54.3522L54.1207 52.2931L55 53.1725V81.1999H51.6666ZM90 78.7397V81.1999H87.7408L56.6834 50.1425L59.2496 47.9893L90 78.7397ZM61.8123 45.8386L90 22.1852V74.0263L61.8123 45.8386ZM83.0273 81.1999H58.3334V56.5058L83.0273 81.1999ZM96.6666 81.1999H93.3332V19.388L96.6666 16.5909V81.1999ZM96.6666 12.2388L48.8293 52.3823L48.8191 52.3909L13.9193 81.6778L13.9004 81.6938L6.54473 87.8665H3.3334V84.0274L96.6666 5.70791V12.2388Z" fill="#BB3C0D"/>
</g>
<defs>
<clipPath id="clip0">
<rect width="100" height="100" fill="white"/>
</clipPath>
</defs>
</svg>
