<svg width="71" height="70" viewBox="0 0 71 70" fill="none" xmlns="http://www.w3.org/2000/svg">
<path d="M70.3782 13.0472C70.3782 9.64378 67.5961 6.87464 64.1768 6.87464H63.6554V2.81999C63.6554 1.46013 62.5437 0.353638 61.178 0.353638H10.7028C9.33655 0.353638 8.22488 1.46013 8.22488 2.81999V11.1715H2.5C1.36858 11.1715 0.451172 12.0846 0.451172 13.2108C0.451172 14.3369 1.36858 15.2501 2.5 15.2501H8.22488V20.0085H2.5C1.36858 20.0085 0.451172 20.9217 0.451172 22.0478C0.451172 23.1745 1.36858 24.0871 2.5 24.0871H8.22488V28.9555H2.5C1.36858 28.9555 0.451172 29.8681 0.451172 30.9948C0.451172 32.1209 1.36858 33.0341 2.5 33.0341H8.22488V37.7925H2.5C1.36858 37.7925 0.451172 38.7057 0.451172 39.8318C0.451172 40.958 1.36858 41.8711 2.5 41.8711H8.22488V46.4883H2.5C1.36858 46.4883 0.451172 47.4014 0.451172 48.5275C0.451172 49.6537 1.36858 50.5668 2.5 50.5668H8.22488V55.3253H2.5C1.36858 55.3253 0.451172 56.2384 0.451172 57.3646C0.451172 58.4907 1.36858 59.4038 2.5 59.4038H8.22488V67.5131C8.22488 68.873 9.33655 69.9795 10.7028 69.9795H61.1774C62.5437 69.9795 63.6554 68.873 63.6554 67.5131V54.6958H64.1768C67.5961 54.6958 70.3777 51.9272 70.3777 48.5238V42.2089C70.3777 40.6207 69.772 39.171 68.7782 38.0757C69.772 36.9809 70.3777 35.5312 70.3777 33.9429V27.6281C70.3777 26.0398 69.772 24.5901 68.7782 23.4953C69.772 22.4 70.3777 20.9503 70.3777 19.3621V13.0472H70.3782ZM59.5577 65.9004H12.3225V59.4038H15.3155C16.4469 59.4038 17.3643 58.4907 17.3643 57.3646C17.3643 56.2384 16.4469 55.3253 15.3155 55.3253H12.3225V50.5668H15.3155C16.4469 50.5668 17.3643 49.6537 17.3643 48.5275C17.3643 47.4009 16.4469 46.4877 15.3155 46.4877H12.3225V41.8711H15.3155C16.4469 41.8711 17.3643 40.958 17.3643 39.8318C17.3643 38.7057 16.4469 37.7925 15.3155 37.7925H12.3225V33.0341H15.3155C16.4469 33.0341 17.3643 32.1209 17.3643 30.9943C17.3643 29.8681 16.4469 28.955 15.3155 28.955H12.3225V24.0871H15.3155C16.4469 24.0871 17.3643 23.1739 17.3643 22.0478C17.3643 20.9217 16.4469 20.0085 15.3155 20.0085H12.3225V15.2501H15.3155C16.4469 15.2501 17.3643 14.3369 17.3643 13.2108C17.3643 12.0841 16.4469 11.171 15.3155 11.171H12.3225V4.43218H59.5577V65.9004ZM66.28 48.5233C66.28 49.6776 65.3365 50.6168 64.1768 50.6168H63.6554V40.1149H64.1768C65.3365 40.1149 66.28 41.0541 66.28 42.2084V48.5233ZM66.28 33.9424C66.28 35.0972 65.3365 36.0364 64.1768 36.0364H63.6554V25.5341H64.1768C65.3365 25.5341 66.28 26.4732 66.28 27.6281V33.9424ZM66.28 19.3621C66.28 20.5164 65.3365 21.4555 64.1768 21.4555H63.6554V10.9537H64.1768C65.3365 10.9537 66.28 11.8929 66.28 13.0472V19.3621Z" fill="#BB3C0D"/>
<path d="M35.9179 34.6786C38.3061 34.6786 40.3737 33.826 42.0628 32.1448C43.7519 30.4631 44.609 28.4058 44.609 26.0287C44.609 23.6521 43.7524 21.5943 42.0628 19.9126C40.3731 18.2313 38.3056 17.3788 35.9179 17.3788C33.5302 17.3788 31.4627 18.2313 29.773 19.9126C28.0839 21.5943 27.2273 23.6521 27.2273 26.0287C27.2273 28.4058 28.0839 30.4636 29.7735 32.1448C31.4632 33.826 33.5307 34.6786 35.9179 34.6786ZM32.6709 22.7969C33.5889 21.8827 34.6205 21.4573 35.9179 21.4573C37.2147 21.4573 38.2469 21.8833 39.1648 22.7964C40.0833 23.7106 40.5108 24.7374 40.5108 26.0287C40.5108 27.3195 40.0833 28.3468 39.1654 29.2604C38.2469 30.1741 37.2153 30.5996 35.9179 30.5996C34.621 30.5996 33.5889 30.1741 32.6704 29.2599C31.7524 28.3463 31.325 27.32 31.325 26.0282C31.325 24.7374 31.753 23.7106 32.6709 22.7969Z" fill="#BB3C0D"/>
<path d="M50.0062 42.0489C49.8701 41.2946 49.6935 40.5786 49.4821 39.9199C49.2553 39.215 48.9479 38.5202 48.5685 37.8557C48.1607 37.1412 47.6772 36.5155 47.1307 35.9949C46.5372 35.4297 45.8173 34.9777 44.9901 34.6515C44.1687 34.328 43.2662 34.1644 42.3072 34.1644C41.6678 34.1644 41.1464 34.4215 40.4612 34.8656C40.086 35.1094 39.6617 35.3814 39.1905 35.681C38.9636 35.8249 38.5372 36.0464 37.7938 36.2855C36.6752 36.6456 35.5555 36.6456 34.4358 36.2855C33.6935 36.0464 33.267 35.8244 33.0413 35.6815C32.5684 35.3809 32.1447 35.1089 31.7679 34.8651C31.0837 34.421 30.5623 34.1644 29.9235 34.1644C28.9639 34.1644 28.0614 34.328 27.2406 34.6515C26.4145 34.9772 25.694 35.4292 25.0989 35.996C24.5535 36.516 24.07 37.1418 23.6622 37.8557C23.2833 38.5202 22.9759 39.2145 22.7486 39.9204C22.5372 40.5781 22.3611 41.2946 22.225 42.0489C22.0916 42.7894 22.0009 43.4948 21.9555 44.145C21.9123 44.7681 21.8904 45.4151 21.8904 46.0685C21.8904 48.019 22.5292 49.6137 23.7892 50.8078C25.0205 51.9743 26.6253 52.566 28.5572 52.566H43.674C45.6059 52.566 47.2102 51.9743 48.442 50.8078C49.7025 49.6142 50.3414 48.0196 50.3414 46.0679C50.3408 45.4119 50.319 44.7649 50.2752 44.1434C50.2304 43.4954 50.1396 42.791 50.0062 42.0489ZM45.6177 47.8528C45.1667 48.2798 44.5316 48.487 43.6745 48.487H28.5572C27.7007 48.487 27.0645 48.2798 26.6146 47.8533C26.3456 47.5983 25.988 47.1362 25.988 46.0679C25.988 45.5091 26.0067 44.9567 26.0436 44.4271C26.0788 43.9235 26.1508 43.3658 26.2586 42.7698C26.3632 42.1908 26.4951 41.6505 26.6514 41.1634C26.7923 40.7257 26.9855 40.2907 27.2251 39.8705C27.4365 39.5003 27.6745 39.1879 27.9323 38.9425C28.1452 38.7401 28.4126 38.5771 28.7494 38.4437C28.9767 38.3545 29.2291 38.2945 29.504 38.2647C29.5125 38.2706 29.5216 38.2764 29.5312 38.2822C29.916 38.5324 30.351 38.8113 30.8366 39.1199C31.4696 39.5215 32.2349 39.8641 33.1758 40.1664C35.1099 40.7889 37.1213 40.7889 39.0538 40.1669C39.9958 39.8641 40.7611 39.5215 41.3951 39.1189C41.8797 38.8108 42.3147 38.5319 42.6989 38.2822C42.708 38.2764 42.7176 38.2706 42.7262 38.2647C43.001 38.2945 43.254 38.3545 43.4813 38.4437C43.8181 38.5771 44.0855 38.7401 44.2979 38.942C44.5562 39.1879 44.7942 39.5003 45.0055 39.871C45.2457 40.2912 45.4389 40.7263 45.5793 41.1629C45.7356 41.6505 45.868 42.1913 45.9726 42.7692C46.0799 43.3668 46.1524 43.9246 46.1871 44.4271L46.1877 44.4287C46.2245 44.9556 46.2432 45.5075 46.2437 46.0679C46.2437 47.1362 45.8861 47.5983 45.6177 47.8528Z" fill="#BB3C0D"/>
</svg>
