<svg width="70" height="70" viewBox="0 0 70 70" fill="none" xmlns="http://www.w3.org/2000/svg">
<path d="M69.9889 26.5861C69.9464 26.2797 69.7838 26.0028 69.5372 25.8162L35.704 0.235801C35.2873 -0.0786004 34.7125 -0.0786004 34.2958 0.235801L0.462792 25.8162C0.216016 26.0028 0.0535947 26.2796 0.0110755 26.5861C-0.0314438 26.8925 0.0494932 27.2031 0.236113 27.4497L3.04785 31.1713C3.43135 31.6807 4.15404 31.7859 4.66687 31.4068V68.8334L4.67015 68.85C4.6774 68.9468 4.69654 69.0422 4.72743 69.1342C4.73577 69.1887 4.74794 69.2427 4.76366 69.2956C4.78581 69.3326 4.81001 69.3686 4.83612 69.403C4.88603 69.5001 4.94933 69.5898 5.02411 69.6692L5.03245 69.681C5.07196 69.7094 5.11325 69.7351 5.15618 69.758C5.2322 69.8204 5.316 69.8727 5.40555 69.9136C5.48936 69.9409 5.57604 69.9584 5.66382 69.9657C5.71932 69.9815 5.77606 69.993 5.83348 70H64.1665C64.2239 69.993 64.2807 69.9815 64.3363 69.9657C64.5251 69.9601 64.7056 69.8863 64.8442 69.7579C64.887 69.7351 64.9282 69.7094 64.9675 69.681L64.9759 69.6692C65.0512 69.5894 65.1148 69.4993 65.1648 69.4015C65.2333 69.3284 65.272 69.2323 65.273 69.1321C65.3035 69.0408 65.3226 68.9461 65.3298 68.85L65.3333 68.8334V31.4075C65.5327 31.5543 65.7736 31.634 66.0214 31.6349C66.0751 31.6351 66.1288 31.6313 66.182 31.6236C66.4887 31.5812 66.7658 31.4184 66.9521 31.1714L69.764 27.4499C69.9505 27.2031 70.0314 26.8924 69.9889 26.5861ZM9.62399 46.6704L20.4166 39.3327L31.209 46.6704H9.62399ZM22.9607 49.0033L15.75 56.6367L8.5394 49.0033H22.9607ZM22.492 37.9217L33.8333 30.211V45.6327L22.492 37.9217ZM31.7315 26.8403H10.7113L21.6342 18.5802L31.7315 26.8403ZM23.5491 17.1322L33.8333 9.35509V25.5451L23.5491 17.1322ZM31.2089 29.1733L20.4166 36.5109L9.62453 29.1733H31.2089ZM18.3414 37.9219L7.0001 45.6327V30.211L18.3414 37.9219ZM14.1459 58.3352L7.0001 65.9002V50.7701L14.1459 58.3352ZM8.53954 67.667L15.7502 60.0336L22.9608 67.667H8.53954ZM24.5 65.899L17.3542 58.3352L24.5 50.7713V65.899ZM43.1666 67.667H26.8334V49.0033H43.1666V67.667ZM38.791 46.6704L49.5832 39.3329L60.3755 46.6704H38.791ZM61.4605 49.0033L54.2498 56.6367L47.0392 49.0033H61.4605ZM38.7911 29.1733H60.3755L49.5832 36.5109L38.7911 29.1733ZM38.268 26.8403L48.3657 18.5802L59.2887 26.8403H38.268ZM36.1667 25.5451V9.35509L46.4509 17.1322L36.1667 25.5451ZM47.5078 37.9219L36.1665 45.6327V30.211L47.5078 37.9219ZM45.4999 50.7713L52.6457 58.3352L45.4999 65.899V50.7713ZM47.0393 67.667L54.25 60.0336L61.4606 67.667H47.0393ZM62.9998 65.9002L55.8539 58.3352L62.9998 50.7701V65.9002ZM62.9998 45.6327L51.6585 37.9219L62.9998 30.2111V45.6327ZM65.7945 28.8338L63.6005 27.1745L63.5103 27.0418L63.4653 27.0723L35.704 6.07957C35.2873 5.76517 34.7125 5.76517 34.2958 6.07957L6.53471 27.0724L6.48986 27.042L6.39963 27.1747L4.20544 28.8338L2.80067 26.9736L34.9999 2.62908L67.1993 26.9736L65.7945 28.8338Z" fill="#BB3C0D"/>
</svg>
