<svg width="70" height="71" viewBox="0 0 70 71" fill="none" xmlns="http://www.w3.org/2000/svg">
<path d="M67.4591 61.2991L66.0143 58.4234H66.4593C68.3902 58.4234 69.9556 56.8653 69.9556 54.9434C69.9556 53.0215 68.3902 51.4634 66.4593 51.4634H65.2939V24.7833V12.0233H66.4593C68.3902 12.0233 69.9556 10.4653 69.9556 8.54329C69.9556 6.62127 68.3902 5.06329 66.4593 5.06329H65.2939V3.90334C65.2939 1.98146 63.7285 0.42334 61.7976 0.42334C59.8667 0.42334 58.3013 1.98132 58.3013 3.90334V5.06329H11.6836V3.90334C11.6836 1.98146 10.1184 0.42334 8.18732 0.42334C6.25629 0.42334 4.691 1.98132 4.691 3.90334V5.06329H3.52561C1.59472 5.06329 0.0292969 6.62127 0.0292969 8.54329C0.0292969 10.4653 1.59458 12.0233 3.52561 12.0233H4.691V51.4632H3.52561C1.59472 51.4632 0.0292969 53.0214 0.0292969 54.9432C0.0292969 56.8651 1.59458 58.4232 3.52561 58.4232H3.97071L2.52629 61.2989C0.509904 62.3598 -0.436423 64.7193 0.29152 66.8707C1.01946 69.0221 3.20712 70.3309 5.45746 69.9616C7.70794 69.5923 9.35736 67.6535 9.35271 65.3834C9.34752 64.6414 9.16137 63.9118 8.81024 63.2574L11.2387 58.4234H58.7462L61.1744 63.2579C60.8234 63.9123 60.6374 64.6416 60.6322 65.3834C60.6199 67.662 62.2716 69.6122 64.53 69.9857C66.7884 70.3591 68.9849 69.045 69.7134 66.8848C70.4418 64.7245 69.4866 62.3575 67.4591 61.2991ZM60.632 3.90334C60.632 3.26267 61.1539 2.74338 61.7974 2.74338C62.4411 2.74338 62.9628 3.26267 62.9628 3.90334V5.06329H60.6319V3.90334H60.632ZM7.02193 3.90334C7.02193 3.26267 7.54364 2.74338 8.18732 2.74338C8.831 2.74338 9.35271 3.26267 9.35271 3.90334V5.06329H7.02193V3.90334ZM3.52561 9.70338C2.88234 9.70257 2.36104 9.18369 2.36022 8.54343C2.36104 7.90316 2.88234 7.38429 3.52561 7.38347H66.4593C67.103 7.38347 67.6247 7.90276 67.6247 8.54343C67.6247 9.1841 67.103 9.70338 66.4593 9.70338H3.52561ZM7.02193 28.2633V25.9433H62.963V28.2633H7.02193ZM62.963 30.5834V51.4634H60.632V30.5834H62.963ZM32.2821 41.0234L11.6838 50.7864V31.2603L32.2821 41.0234ZM15.676 30.5834H54.3088L34.9924 39.7388L15.676 30.5834ZM34.9924 42.308L54.3088 51.4634H15.676L34.9924 42.308ZM37.7028 41.0234L58.3011 31.2603V50.7864L37.7028 41.0234ZM9.35285 30.5834V51.4634H7.02193V30.5834H9.35285ZM7.02193 23.6234V12.0233H9.35285V23.6232H7.02193V23.6234ZM11.6836 23.6234V12.0233H58.3011V23.6232H11.6836V23.6234ZM60.632 23.6234V12.0233H62.963V23.6232H60.632V23.6234ZM6.84492 66.2705C6.48437 67.1379 5.63419 67.7036 4.691 67.7033C3.58748 67.7041 2.63487 66.9341 2.40925 65.8589C2.18363 64.7837 2.74714 63.6986 3.75874 63.2598C3.77199 63.2555 3.78292 63.247 3.79603 63.2422C4.66669 62.8816 5.66997 63.0787 6.33755 63.7418C7.00526 64.4049 7.20548 65.4031 6.84492 66.2705ZM7.11685 61.4401C6.58543 61.1159 5.99352 60.9023 5.37688 60.8123L6.57683 58.4234H8.63228L7.11685 61.4401ZM3.52561 56.1033C2.88193 56.1033 2.36022 55.584 2.36022 54.9434C2.36022 54.3027 2.88193 53.7834 3.52561 53.7834H66.4593C67.1027 53.7841 67.6241 54.3031 67.6247 54.9434C67.624 55.5838 67.1027 56.1028 66.4593 56.1033H3.52561ZM61.3525 58.4234H63.4079L64.6083 60.8123C63.9914 60.9023 63.3993 61.1159 62.8676 61.4402L61.3525 58.4234ZM67.5755 65.859C67.3499 66.9341 66.3973 67.7041 65.2937 67.7033C64.3496 67.7042 63.4982 67.1382 63.1374 66.2698C62.7767 65.4015 62.9778 64.4022 63.6469 63.7392C64.316 63.0762 65.3208 62.8805 66.1917 63.2434C66.2039 63.2478 66.2139 63.2561 66.2261 63.26C67.2377 63.6988 67.8011 64.7839 67.5755 65.859Z" fill="#BB3C0D"/>
</svg>
