<svg width="70" height="70" viewBox="0 0 70 70" fill="none" xmlns="http://www.w3.org/2000/svg">
<g clip-path="url(#clip0)">
<path d="M68.8333 53.6667H60.6667V5.83333C60.6701 2.71729 58.224 0.148112 55.1108 0C55.0384 0 54.9701 0.0131022 54.8988 0.0113932C54.8755 0.0113932 54.8567 0 54.8333 0H5.83333C2.61304 0.00398764 0.00398764 2.61304 0 5.83333V10.5C0 11.1443 0.522379 11.6667 1.16667 11.6667H7V59.5C7.00399 62.7203 9.61304 65.3293 12.8333 65.3333H28V68.8333C28 69.305 28.2843 69.7305 28.7201 69.9111C29.1558 70.0917 29.6577 69.9915 29.9915 69.6582L33.8333 65.8164L37.6751 69.6582C38.0089 69.9915 38.5108 70.0917 38.9466 69.9111C39.3824 69.7305 39.6667 69.305 39.6667 68.8333V65.3333H64.1667C67.387 65.3293 69.996 62.7203 70 59.5V54.8333C70 54.189 69.4776 53.6667 68.8333 53.6667ZM2.33333 5.83333C2.33333 3.90047 3.90047 2.33333 5.83333 2.33333H50.1667C49.4079 3.3422 48.9983 4.57096 49 5.83333V9.33333H2.33333V5.83333ZM37.7173 56.8391C36.0789 58.2564 33.7997 58.6717 31.7672 57.9226C31.095 57.6794 30.4757 57.3079 29.9448 56.8294C28.1441 55.215 27.526 52.6567 28.3914 50.3979C29.2572 48.1398 31.4271 46.6496 33.8453 46.6524C36.2641 46.6553 38.4305 48.1506 39.2907 50.411C40.1509 52.672 39.5265 55.2287 37.7218 56.8391H37.7173ZM37.3333 66.0169L34.6582 63.3418C34.2025 62.8866 33.4642 62.8866 33.0085 63.3418L30.3333 66.0169V59.8754C30.3812 59.8988 30.4313 59.9141 30.4803 59.9352C30.6831 60.0275 30.8899 60.1124 31.1001 60.1881L31.2573 60.2394C32.9304 60.8108 34.7454 60.8108 36.4185 60.2394L36.5586 60.1933C36.7819 60.1152 37.0006 60.0264 37.2154 59.9261C37.2542 59.9084 37.2946 59.8965 37.3322 59.8783L37.3333 66.0169ZM39.6667 63V58.1886C42.8078 54.9826 42.773 49.842 39.5886 46.6786C36.4036 43.5159 31.263 43.5159 28.078 46.6786C24.8936 49.842 24.8589 54.9826 28 58.1886V63H12.8333C10.9005 63 9.33333 61.4329 9.33333 59.5V11.6667H50.1667C50.811 11.6667 51.3333 11.1443 51.3333 10.5V6.10164C51.3373 5.03695 51.7748 4.0201 52.5456 3.28524C53.0098 2.83464 53.5932 2.52588 54.2266 2.39543C54.381 2.36808 54.5371 2.35213 54.6932 2.34757C54.7952 2.33732 54.8971 2.33276 54.9991 2.33333C56.867 2.42163 58.3356 3.96313 58.3333 5.83333V59.5C58.335 59.7917 58.359 60.0833 58.4045 60.3716C58.4188 60.4616 58.4404 60.5476 58.4592 60.6376C58.4968 60.8347 58.5452 61.029 58.6039 61.2209C58.6341 61.3189 58.6683 61.4146 58.703 61.5115C58.7697 61.6921 58.8466 61.8681 58.9366 62.0424C58.9788 62.1296 59.0181 62.2161 59.0648 62.301C59.1759 62.5027 59.2989 62.6975 59.4322 62.8844C59.4601 62.9242 59.4801 62.9675 59.5091 63.0011L39.6667 63ZM67.6667 59.5C67.6667 61.4329 66.0995 63 64.1667 63C62.2367 62.9932 60.6735 61.43 60.6667 59.5V56H67.6667V59.5Z" fill="#BB3C0D"/>
<path d="M52.5 16.3334H15.1667C14.5224 16.3334 14 16.8558 14 17.5C14 18.1443 14.5224 18.6667 15.1667 18.6667H52.5C53.1443 18.6667 53.6667 18.1443 53.6667 17.5C53.6667 16.8558 53.1443 16.3334 52.5 16.3334Z" fill="#BB3C0D"/>
<path d="M52.5 23.3334H15.1667C14.5224 23.3334 14 23.8558 14 24.5C14 25.1443 14.5224 25.6667 15.1667 25.6667H52.5C53.1443 25.6667 53.6667 25.1443 53.6667 24.5C53.6667 23.8558 53.1443 23.3334 52.5 23.3334Z" fill="#BB3C0D"/>
<path d="M52.5 30.3334H15.1667C14.5224 30.3334 14 30.8558 14 31.5C14 32.1443 14.5224 32.6667 15.1667 32.6667H52.5C53.1443 32.6667 53.6667 32.1443 53.6667 31.5C53.6667 30.8558 53.1443 30.3334 52.5 30.3334Z" fill="#BB3C0D"/>
<path d="M52.5 37.3334H15.1667C14.5224 37.3334 14 37.8558 14 38.5C14 39.1443 14.5224 39.6667 15.1667 39.6667H52.5C53.1443 39.6667 53.6667 39.1443 53.6667 38.5C53.6667 37.8558 53.1443 37.3334 52.5 37.3334Z" fill="#BB3C0D"/>
<path d="M22.1667 49H15.1667C14.5224 49 14 49.5224 14 50.1667C14 50.811 14.5224 51.3333 15.1667 51.3333H22.1667C22.811 51.3333 23.3333 50.811 23.3333 50.1667C23.3333 49.5224 22.811 49 22.1667 49Z" fill="#BB3C0D"/>
<path d="M22.1667 52.5H19.8334C19.1891 52.5 18.6667 53.0224 18.6667 53.6667C18.6667 54.311 19.1891 54.8333 19.8334 54.8333H22.1667C22.811 54.8333 23.3334 54.311 23.3334 53.6667C23.3334 53.0224 22.811 52.5 22.1667 52.5Z" fill="#BB3C0D"/>
<path d="M52.4999 49H45.4999C44.8556 49 44.3333 49.5224 44.3333 50.1667C44.3333 50.811 44.8556 51.3333 45.4999 51.3333H52.4999C53.1442 51.3333 53.6666 50.811 53.6666 50.1667C53.6666 49.5224 53.1442 49 52.4999 49Z" fill="#BB3C0D"/>
<path d="M52.5 52.5H50.1667C49.5224 52.5 49 53.0224 49 53.6667C49 54.311 49.5224 54.8333 50.1667 54.8333H52.5C53.1443 54.8333 53.6667 54.311 53.6667 53.6667C53.6667 53.0224 53.1443 52.5 52.5 52.5Z" fill="#BB3C0D"/>
<path d="M17.5001 58.3333H15.1667C14.5225 58.3333 14.0001 57.8109 14.0001 57.1666V54.8333C14.0001 54.189 13.4777 53.6666 12.8334 53.6666C12.1891 53.6666 11.6667 54.189 11.6667 54.8333V57.1666C11.6667 59.0995 13.2339 60.6666 15.1667 60.6666H17.5001C18.1444 60.6666 18.6667 60.1443 18.6667 59.5C18.6667 58.8557 18.1444 58.3333 17.5001 58.3333Z" fill="#BB3C0D"/>
</g>
<defs>
<clipPath id="clip0">
<rect width="70" height="70" fill="white"/>
</clipPath>
</defs>
</svg>
