<svg width="82" height="51" viewBox="0 0 82 51" fill="none" xmlns="http://www.w3.org/2000/svg">
<path d="M19.6039 38.6206C17.3566 38.6206 15.5347 40.2079 15.5347 42.1658C15.5347 44.1237 17.3565 45.7111 19.6039 45.7111C21.8514 45.7111 23.6732 44.1239 23.6732 42.1658C23.6707 40.2088 21.8503 38.6227 19.6039 38.6206ZM19.6039 43.3475C18.8548 43.3475 18.2476 42.8185 18.2476 42.1658C18.2476 41.5132 18.8548 40.9841 19.6039 40.9841C20.3531 40.9841 20.9603 41.5132 20.9603 42.1658C20.9595 42.8182 20.3528 43.3468 19.6039 43.3475Z" fill="#BB3C0D"/>
<path d="M63.01 38.6206C60.7626 38.6206 58.9407 40.2079 58.9407 42.1658C58.9407 44.1237 60.7626 45.7111 63.01 45.7111C65.2573 45.7111 67.0792 44.1239 67.0792 42.1658C67.0768 40.2088 65.2563 38.6227 63.01 38.6206ZM63.01 43.3475C62.2608 43.3475 61.6536 42.8185 61.6536 42.1658C61.6536 41.5132 62.2609 40.9841 63.01 40.9841C63.7591 40.9841 64.3663 41.5132 64.3663 42.1658C64.3657 42.8182 63.7588 43.3468 63.01 43.3475Z" fill="#BB3C0D"/>
<path d="M80.9661 21.7986L71.6221 12.6307C70.848 11.8713 69.7372 11.4377 68.5714 11.4397H56.2277V4.34913C56.2253 2.39202 54.4047 0.80591 52.1583 0.803833H4.68285C2.43646 0.80591 0.61591 2.39202 0.613526 4.34913V35.0751C0.613367 35.3885 0.75627 35.6892 1.01076 35.9109C1.26509 36.1325 1.61019 36.257 1.97007 36.257H3.32646V39.8023C3.32885 41.7594 5.14939 43.3455 7.39578 43.3475H10.217C10.8855 47.4163 14.8859 50.4381 19.6038 50.4381C24.3216 50.4381 28.322 47.4163 28.9905 43.3475H53.6233C54.2919 47.4163 58.2922 50.4381 63.0101 50.4381C67.728 50.4381 71.7283 47.4163 72.3969 43.3475H77.9307C80.1771 43.3455 81.9976 41.7594 82 39.8023V24.1553C81.999 23.2857 81.6311 22.447 80.9661 21.7986ZM3.32646 33.8932V4.34913C3.32726 3.69671 3.934 3.16796 4.68285 3.16741H52.1583C52.9072 3.1681 53.5141 3.69671 53.5147 4.34913V33.8932H3.32646ZM10.217 40.9838H7.39578C6.64693 40.9831 6.04003 40.4545 6.0394 39.8021V36.2568H12.9716C11.4815 37.5256 10.5133 39.1871 10.217 40.9838ZM19.6038 48.0744C15.8581 48.0744 12.8215 45.4289 12.8215 42.1656C12.8215 38.9022 15.8581 36.2568 19.6038 36.2568C23.3494 36.2568 26.386 38.9024 26.386 42.1657C26.3816 45.4274 23.3475 48.0707 19.6038 48.0744ZM33.1681 40.9838H28.9904C28.6941 39.1871 27.726 37.5255 26.236 36.2568H33.1681V40.9838ZM45.3761 40.9838H35.8811V36.2568H45.3761V40.9838ZM53.6231 40.9838H48.089V36.2568H56.3776C54.8875 37.5256 53.9194 39.1871 53.6231 40.9838ZM63.0098 48.0744C59.2641 48.0744 56.2275 45.4289 56.2275 42.1656C56.2275 38.9022 59.2639 36.2567 63.0098 36.2567C66.7555 36.2567 69.792 38.9022 69.792 42.1656C69.7876 45.4274 66.7537 48.0707 63.0098 48.0744ZM79.2871 39.8021C79.2863 40.4545 78.6795 40.9833 77.9307 40.9838H72.3966C71.7202 36.9188 67.7246 33.9006 63.0098 33.8932H56.2275V13.8033H61.6534V25.6209C61.6558 27.578 63.4763 29.1641 65.7227 29.1662H79.2871V39.8021ZM79.2871 26.8026H65.7227C64.9739 26.8019 64.367 26.2733 64.3663 25.6209V13.8033H68.5714C68.9608 13.8014 69.3325 13.9451 69.5921 14.198L78.9394 23.3694C79.162 23.5854 79.2856 23.865 79.2872 24.1553V26.8026H79.2871Z" fill="#BB3C0D"/>
</svg>
