<svg width="68" height="86" viewBox="0 0 68 86" fill="none" xmlns="http://www.w3.org/2000/svg">
<path d="M33.8183 36.4943C43.8177 36.4943 51.9242 28.4227 51.9242 18.4663C51.9242 8.50994 43.8177 0.439087 33.8183 0.439087C23.8189 0.439087 15.7131 8.51068 15.7131 18.467C15.7244 28.4182 23.8241 36.4831 33.8183 36.4943ZM33.8183 4.25784C41.7001 4.25784 48.0889 10.6192 48.0889 18.467C48.0889 26.3141 41.7001 32.6755 33.8183 32.6755C25.9373 32.6755 19.5484 26.3141 19.5484 18.467C19.5574 10.6229 25.941 4.26679 33.8183 4.25784Z" fill="#BB3C0D"/>
<path d="M34.2912 42.8444C15.6894 42.8369 0.608235 57.8537 0.615725 76.3745V84.0694C0.615725 85.124 1.47417 85.9788 2.53336 85.9788H66.049C67.1082 85.9788 67.9667 85.124 67.9667 84.0694V76.3745C67.9749 57.8537 52.893 42.8369 34.2912 42.8444ZM64.1314 82.16H4.451V76.3745C4.42403 65.7418 10.1058 55.9056 19.3494 50.581C28.593 45.2572 39.9894 45.2572 49.2338 50.581C58.4774 55.9056 64.1591 65.7418 64.1314 76.3745V82.16Z" fill="#BB3C0D"/>
</svg>
