<svg width="41" height="39" viewBox="0 0 41 39" fill="none" xmlns="http://www.w3.org/2000/svg">
<path d="M39.2968 29.6595L31.1796 24.6017C30.1495 23.965 28.7687 24.1745 28.0071 25.0831L25.6427 27.9236C25.3388 28.2979 24.7864 28.4065 24.3468 28.1783L23.8971 27.9467C22.4061 27.1873 20.5509 26.242 16.8131 22.7484C13.0752 19.2548 12.0614 17.5201 11.2487 16.1296L11.0021 15.7094C10.7545 15.2987 10.8686 14.7804 11.2694 14.4942L14.3075 12.2857C15.2795 11.5741 15.5041 10.2843 14.8234 9.32157L9.41016 1.73738C8.71259 0.756996 7.31307 0.462691 6.23316 1.06923L2.83882 2.97431C1.77231 3.56014 0.989842 4.50892 0.655507 5.62182C-0.566784 9.78293 0.352733 16.9644 11.6752 27.5445C20.6819 35.9591 27.387 38.2221 31.9956 38.2221C33.0563 38.2263 34.1128 38.0974 35.1367 37.8387C36.3281 37.5267 37.3437 36.7955 37.9703 35.7988L40.0113 32.6292C40.6614 31.62 40.3466 30.3116 39.2968 29.6595ZM38.8597 31.9885L36.8234 35.1599C36.3735 35.8794 35.643 36.4084 34.7851 36.6361C30.6737 37.6907 23.4907 36.8172 12.6208 26.661C1.75077 16.5048 0.8159 9.7942 1.94468 5.9522C2.18872 5.14963 2.75557 4.46626 3.52653 4.04521L6.92086 2.14262C7.38943 1.87919 7.99685 2.00688 8.29955 2.43231L11.2401 6.5572L13.7082 10.0158C14.0038 10.4334 13.9066 10.9932 13.485 11.3022L10.4462 13.5107C9.52145 14.1714 9.25736 15.3668 9.82673 16.3156L10.068 16.7252C10.9221 18.1889 11.984 20.0096 15.8609 23.6313C19.7377 27.2529 21.6859 28.2452 23.2516 29.0431L23.6907 29.2691C24.7061 29.801 25.9856 29.5544 26.6927 28.6903L29.0565 25.8511C29.3873 25.4574 29.9861 25.3667 30.4332 25.6426L38.5498 30.7004C39.0054 30.983 39.1421 31.5508 38.8597 31.9885Z" fill="white"/>
<path d="M22.9694 7.00121C29.2411 7.00772 34.3236 11.7565 34.3306 17.6163C34.3306 17.9612 34.6298 18.2407 34.9989 18.2407C35.368 18.2407 35.6672 17.9612 35.6672 17.6163C35.6594 11.067 29.979 5.75959 22.9694 5.75242C22.6003 5.75242 22.3011 6.03195 22.3011 6.37682C22.3011 6.72169 22.6003 7.00121 22.9694 7.00121Z" fill="white"/>
<path d="M22.9694 10.7477C27.0275 10.7522 30.316 13.8248 30.3208 17.6164C30.3208 17.9612 30.6201 18.2407 30.9891 18.2407C31.3582 18.2407 31.6574 17.9612 31.6574 17.6164C31.6518 13.1353 27.7653 9.50407 22.9694 9.49895C22.6003 9.49895 22.3011 9.77848 22.3011 10.1233C22.3011 10.4682 22.6003 10.7477 22.9694 10.7477Z" fill="white"/>
<path d="M22.9694 14.4942C24.8139 14.4963 26.3086 15.8929 26.3109 17.6164C26.3109 17.9612 26.6101 18.2408 26.9792 18.2408C27.3482 18.2408 27.6474 17.9612 27.6474 17.6164C27.6445 15.2035 25.5518 13.2482 22.9694 13.2455C22.6003 13.2455 22.3011 13.525 22.3011 13.8699C22.3011 14.2147 22.6003 14.4942 22.9694 14.4942Z" fill="white"/>
</svg>
