<svg width="85" height="66" viewBox="0 0 85 66" fill="none" xmlns="http://www.w3.org/2000/svg">
<path d="M77.2429 0.467285H32.5587C28.7129 0.471175 25.5963 3.44115 25.5922 7.10613V11.3715H7.22967C3.38382 11.376 0.267266 14.3453 0.263184 18.0103V48.0511C0.267266 51.7161 3.38382 54.686 7.22967 54.6899H9.28696V63.8352C9.28696 64.4427 9.63529 65.0015 10.1952 65.292C10.7551 65.5824 11.4368 65.5584 11.9722 65.2291L29.1156 54.6899H47.0747C50.9206 54.686 54.0371 51.7161 54.0412 48.0511V42.7938H56.5353L72.7058 55.3707C73.227 55.7759 73.9461 55.8589 74.5536 55.584C75.1611 55.3091 75.5482 54.7256 75.5482 54.0844V42.7938H77.2429C81.0887 42.7899 84.2053 39.82 84.2094 36.155V7.10613C84.2053 3.44115 81.0887 0.471175 77.2429 0.467285V0.467285ZM50.5586 48.0511C50.5559 49.8839 48.998 51.3686 47.0754 51.3705H28.6026C28.2679 51.3705 27.94 51.4632 27.6584 51.6363L12.7702 60.79V53.0302C12.7702 52.1135 11.9906 51.3705 11.0286 51.3705H7.22967C5.30709 51.3686 3.74847 49.8839 3.74643 48.0511V18.0103C3.74847 16.1781 5.30709 14.6928 7.22967 14.6909H25.5922V36.155C25.5963 39.82 28.7129 42.7899 32.5587 42.7938H50.5586V48.0511ZM80.7261 36.155C80.7241 37.9871 79.1655 39.4725 77.2429 39.4744H73.8066C72.8453 39.4744 72.065 40.2174 72.065 41.1341V50.588L58.2558 39.8485C57.9449 39.6067 57.5558 39.4744 57.1544 39.4744H32.5587C30.6354 39.4725 29.0775 37.9871 29.0755 36.155V7.10613C29.0775 5.27397 30.6354 3.78865 32.5587 3.78671H77.2429C79.1655 3.78865 80.7241 5.27397 80.7261 7.10613V36.155Z" fill="#BB3C0D"/>
</svg>
