<svg width="71" height="82" viewBox="0 0 71 82" fill="none" xmlns="http://www.w3.org/2000/svg">
<path d="M70.9819 18.2216C70.974 18.1031 70.948 17.9865 70.9054 17.8745C70.8888 17.8313 70.8772 17.7913 70.8563 17.7494C70.7848 17.6034 70.6844 17.4705 70.5609 17.3565L52.8109 1.26207C52.6852 1.14943 52.5379 1.0584 52.3761 0.993569C52.332 0.977196 52.288 0.962134 52.2425 0.949691C52.1168 0.910398 51.9853 0.886823 51.8524 0.879619C51.8286 0.882238 51.8004 0.869141 51.7708 0.869141H7.39583C3.31296 0.873725 0.00505575 3.87309 0 7.57515V74.6353C0.00505575 78.3374 3.31296 81.3367 7.39583 81.3413H63.6042C67.687 81.3367 70.9949 78.3374 71 74.6353V18.3048C71 18.2766 70.9834 18.2511 70.9819 18.2216ZM65.95 16.9636H54.7292C53.9123 16.9636 53.25 16.363 53.25 15.6224V5.44809L65.95 16.9636ZM63.6042 78.6589H7.39583C4.94524 78.6589 2.95833 76.8573 2.95833 74.6353V7.57515C2.95833 5.35313 4.94524 3.55155 7.39583 3.55155H50.2917V15.6224C50.2917 17.8444 52.2786 19.646 54.7292 19.646H68.0417V74.6353C68.0417 76.8573 66.0548 78.6589 63.6042 78.6589Z" fill="#BB3C0D"/>
<path d="M59.1676 42.4465H53.3455L57.4623 38.7136C58.0394 38.1904 58.0394 37.341 57.4623 36.8177L49.1044 29.2394C48.5274 28.7162 47.5906 28.7162 47.0135 29.2394L42.8967 32.9723V27.6933C42.8967 26.9526 42.2344 26.3521 41.4175 26.3521H29.5842C28.7673 26.3521 28.105 26.9526 28.105 27.6933V32.9723L23.9882 29.2394C23.4111 28.7162 22.4743 28.7162 21.8973 29.2394L13.5394 36.8177C12.9623 37.341 12.9623 38.1904 13.5394 38.7136L17.6562 42.4465H11.8341C11.0173 42.4465 10.355 43.047 10.355 43.7877V54.5173C10.355 55.2579 11.0173 55.8585 11.8341 55.8585H17.6562L13.5394 59.5913C12.9623 60.1146 12.9623 60.9639 13.5394 61.4872L21.8973 69.0655C22.4743 69.5887 23.4111 69.5887 23.9882 69.0655L28.105 65.3327V70.6117C28.105 71.3524 28.7673 71.9529 29.5842 71.9529H41.4175C42.2344 71.9529 42.8967 71.3524 42.8967 70.6117V65.3327L47.0135 69.0655C47.5906 69.5887 48.5274 69.5887 49.1044 69.0655L57.4623 61.4872C58.0394 60.9639 58.0394 60.1146 57.4623 59.5913L53.3455 55.8585H59.1676C59.9844 55.8585 60.6467 55.2579 60.6467 54.5173V43.7877C60.6467 43.047 59.9844 42.4465 59.1676 42.4465ZM57.6884 53.1761H52.2303C51.589 53.1754 51.0206 53.55 50.822 54.1027C50.6522 54.5821 50.4435 55.049 50.1979 55.5002C49.9134 56.0163 50.0246 56.6397 50.4746 57.0484L54.3205 60.535L48.0593 66.2207L44.2134 62.7334C43.7627 62.3254 43.0751 62.2246 42.506 62.4826C42.0083 62.7053 41.4934 62.8945 40.9647 63.0484C40.3551 63.2266 39.9405 63.7406 39.9384 64.3215V69.2705H31.0633V64.3215C31.0641 63.74 30.6509 63.2246 30.0414 63.0445C29.5127 62.8906 28.9977 62.7013 28.5001 62.4787C27.9309 62.2207 27.2434 62.3215 26.7927 62.7295L22.9474 66.2168L16.6768 60.5396L20.5228 57.0523C20.9728 56.6437 21.084 56.0202 20.7994 55.5042C20.5539 55.053 20.3451 54.586 20.1754 54.1067C19.979 53.5539 19.412 53.178 18.7714 53.1761H13.3133V45.1289H18.7714C19.4127 45.1295 19.9811 44.7549 20.1798 44.2022C20.3495 43.7228 20.5582 43.2559 20.8038 42.8047C21.0883 42.2886 20.9771 41.6652 20.5272 41.2565L16.6812 37.7699L22.9474 32.0882L26.7927 35.5754C27.2434 35.9834 27.9309 36.0843 28.5001 35.8262C28.9977 35.6036 29.5127 35.4143 30.0414 35.2604C30.6509 35.0803 31.0641 34.5649 31.0633 33.9834V29.0345H39.9384V33.9834C39.9376 34.5649 40.3508 35.0803 40.9603 35.2604C41.489 35.4143 42.004 35.6036 42.5016 35.8262C43.0708 36.0843 43.7583 35.9834 44.209 35.5754L48.0543 32.0882L54.3205 37.7699L50.4746 41.2565C50.0246 41.6652 49.9134 42.2886 50.1979 42.8047C50.4435 43.2559 50.6522 43.7228 50.822 44.2022C51.0206 44.7549 51.589 45.1295 52.2303 45.1289H57.6884V53.1761Z" fill="#BB3C0D"/>
<path d="M35.5006 39.7646C29.7819 39.7646 25.1465 43.9676 25.1465 49.153C25.1465 54.3383 29.7819 58.5413 35.5006 58.5413C41.2194 58.5413 45.8547 54.3383 45.8547 49.153C45.8475 43.9709 41.2157 39.7712 35.5006 39.7646ZM35.5006 55.8589C31.4163 55.8589 28.1048 52.8563 28.1048 49.153C28.1048 45.4496 31.4163 42.447 35.5006 42.447C39.5849 42.447 42.8964 45.4496 42.8964 49.153C42.8914 52.855 39.5835 55.8543 35.5006 55.8589Z" fill="#BB3C0D"/>
<path d="M19.2286 8.91675C20.0455 8.91675 20.7078 8.31623 20.7078 7.57556C20.7078 6.8349 20.0455 6.23438 19.2286 6.23438H10.3535C7.90293 6.23438 5.91602 8.03594 5.91602 10.2579V18.3051C5.91602 19.0457 6.57832 19.6462 7.39519 19.6462C8.21206 19.6462 8.87437 19.0457 8.87437 18.3051V10.2579C8.87437 9.51727 9.53667 8.91675 10.3535 8.91675H19.2286Z" fill="#BB3C0D"/>
</svg>
