<svg width="69" height="82" viewBox="0 0 69 82" fill="none" xmlns="http://www.w3.org/2000/svg">
<path d="M27.7259 3.01758H50.4972C51.0439 3.01758 51.4872 2.53734 51.4872 1.94385C51.4872 1.35088 51.0439 0.870117 50.4972 0.870117H27.7259C27.1791 0.870117 26.7358 1.35088 26.7358 1.94385C26.7358 2.53734 27.1791 3.01758 27.7259 3.01758Z" fill="#BB3C0D"/>
<path d="M67.5926 23.1891C68.2253 23.1891 68.7382 22.6689 68.7382 22.0261V17.3739C68.7343 14.1641 66.1723 11.5626 63.0101 11.5586C62.9871 11.5586 62.9653 11.5586 62.9424 11.5586H12.602C9.43976 11.5626 6.87774 14.1641 6.87382 17.3739V69.7113H1.14564C0.512964 69.7113 0 70.232 0 70.8743V75.5265C0.00391576 78.7369 2.56594 81.3384 5.72819 81.3418L54.2528 81.327C61.2871 81.1743 67.2514 76.0325 68.5385 69.0099C69.8257 61.9873 66.0828 55.0118 59.5731 52.3007V23.1891H67.5926ZM66.447 17.3739V20.863H59.5731V17.3739C59.5782 15.4493 61.1137 13.8898 63.0101 13.8847H63.0252C64.917 13.8932 66.447 15.4532 66.447 17.3739ZM9.1651 17.3739C9.1651 15.447 10.704 13.8847 12.602 13.8847H58.4275V13.8921C58.2625 14.1181 58.1142 14.3561 57.9828 14.6037C57.9475 14.6701 57.9179 14.7388 57.8843 14.8058C57.792 14.9955 57.7092 15.1897 57.6371 15.3874C57.6074 15.4725 57.5783 15.5572 57.5509 15.6435C57.4905 15.8439 57.4407 16.0478 57.401 16.254C57.3848 16.3357 57.3658 16.4147 57.3529 16.497C57.307 16.7872 57.283 17.0803 57.2819 17.3739V51.5096C57.1901 51.4863 57.0939 51.4795 57.0011 51.4585C56.6195 51.375 56.2375 51.3063 55.8554 51.2529C55.7066 51.2319 55.5578 51.2097 55.4073 51.1933C54.8888 51.1359 54.3669 51.1058 53.845 51.1024C49.6171 51.0803 45.581 52.8924 42.7533 56.0829C39.925 59.2739 38.5752 63.5394 39.0423 67.8054C39.0568 67.9553 39.0787 68.1053 39.0982 68.2552C39.1519 68.6544 39.2207 69.0474 39.3046 69.4381C39.3242 69.529 39.3309 69.6221 39.3528 69.7113H9.1651V17.3739ZM5.72819 79.0157C3.83017 79.0157 2.29127 77.454 2.29127 75.5265V72.0374H40.0973C40.1169 72.0851 40.1409 72.1294 40.1605 72.1759C40.2428 72.3702 40.3334 72.5598 40.4229 72.7495C40.4984 72.9085 40.5706 73.0681 40.6517 73.2237C40.7479 73.4111 40.8536 73.5928 40.9577 73.7751C41.0438 73.9239 41.126 74.0767 41.2167 74.2221C41.3313 74.4021 41.4454 74.5708 41.5601 74.7485C41.6552 74.8894 41.747 75.0325 41.8476 75.1699C41.9741 75.3431 42.1089 75.5084 42.242 75.6759C42.3438 75.8037 42.4423 75.936 42.548 76.0604C42.6923 76.229 42.8456 76.3909 42.9966 76.5539C43.1024 76.6703 43.2031 76.7861 43.3121 76.8935C43.4794 77.0621 43.6556 77.2211 43.8296 77.3819C43.9319 77.4761 44.0293 77.5749 44.1333 77.6658C44.3397 77.8447 44.554 78.0145 44.7694 78.1797C44.8505 78.2439 44.926 78.3109 45.0088 78.3728C45.3086 78.5966 45.6168 78.8101 45.9335 79.0123L5.72819 79.0157ZM66.447 66.2221C66.4643 70.6807 64.1814 74.8223 60.4301 77.1399C58.5036 78.3319 56.2979 78.9799 54.0419 79.0157C53.9764 79.0202 53.9104 79.0202 53.845 79.0157C53.7448 79.0208 53.6441 79.0174 53.5446 79.0055C53.5004 78.9987 53.4556 78.9947 53.4109 78.9941C52.7743 78.9737 52.1405 78.9032 51.5145 78.7834C47.4438 77.9923 44.0108 75.2307 42.3209 71.3888C42.1928 71.0941 42.0753 70.7937 41.969 70.4887C41.4852 69.1201 41.239 67.6765 41.2429 66.2221C41.2513 59.1603 46.8883 53.437 53.845 53.4285C54.2298 53.4285 54.6113 53.4484 54.9906 53.4836C56.035 53.5767 57.0631 53.8062 58.0494 54.1662C63.0928 55.9585 66.4632 60.7981 66.447 66.2221Z" fill="#BB3C0D"/>
<path d="M51.5536 39.5225H14.8932C14.2605 39.5225 13.7476 40.0431 13.7476 40.6853C13.7476 41.328 14.2605 41.8481 14.8932 41.8481H51.5536C52.1863 41.8481 52.6992 41.328 52.6992 40.6853C52.6992 40.0431 52.1863 39.5225 51.5536 39.5225Z" fill="#BB3C0D"/>
<path d="M51.5536 46.502H14.8932C14.2605 46.502 13.7476 47.0226 13.7476 47.6648C13.7476 48.3075 14.2605 48.8276 14.8932 48.8276H51.5536C52.1863 48.8276 52.6992 48.3075 52.6992 47.6648C52.6992 47.0226 52.1863 46.502 51.5536 46.502Z" fill="#BB3C0D"/>
<path d="M37.8059 53.48H14.8932C14.2605 53.48 13.7476 54.0008 13.7476 54.6431C13.7476 55.2859 14.2605 55.8062 14.8932 55.8062H37.8059C38.4386 55.8062 38.9515 55.2859 38.9515 54.6431C38.9515 54.0008 38.4386 53.48 37.8059 53.48Z" fill="#BB3C0D"/>
<path d="M35.5146 60.458H14.8932C14.2605 60.458 13.7476 60.9787 13.7476 61.621C13.7476 62.2638 14.2605 62.7839 14.8932 62.7839H35.5146C36.1473 62.7839 36.6603 62.2638 36.6603 61.621C36.6603 60.9787 36.1473 60.458 35.5146 60.458Z" fill="#BB3C0D"/>
<path d="M51.5536 32.5444H14.8932C14.2605 32.5444 13.7476 33.0651 13.7476 33.7073C13.7476 34.35 14.2605 34.8701 14.8932 34.8701H51.5536C52.1863 34.8701 52.6992 34.35 52.6992 33.7073C52.6992 33.0651 52.1863 32.5444 51.5536 32.5444Z" fill="#BB3C0D"/>
<path d="M51.5536 25.5669H19.4757C18.843 25.5669 18.3301 26.0877 18.3301 26.7301C18.3301 27.373 18.843 27.8933 19.4757 27.8933H51.5536C52.1863 27.8933 52.6992 27.373 52.6992 26.7301C52.6992 26.0877 52.1863 25.5669 51.5536 25.5669Z" fill="#BB3C0D"/>
<path d="M13.7478 19.7508C13.7478 19.1085 14.2608 18.5878 14.8934 18.5878H19.476C20.1086 18.5878 20.6216 18.0676 20.6216 17.4247C20.6216 16.7825 20.1086 16.2617 19.476 16.2617H14.8934C12.9954 16.2617 11.4565 17.824 11.4565 19.7508V24.4029C11.4565 25.0457 11.9695 25.5659 12.6022 25.5659C13.2348 25.5659 13.7478 25.0457 13.7478 24.4029V19.7508Z" fill="#BB3C0D"/>
<path d="M54.9905 56.9687C54.9905 56.3264 54.4776 55.8057 53.8449 55.8057C53.2122 55.8057 52.6993 56.3264 52.6993 56.9687V65.1102H44.6798C44.0471 65.1102 43.5342 65.631 43.5342 66.2733C43.5342 66.9162 44.0471 67.4364 44.6798 67.4364H52.6993V75.5779C52.6993 76.2208 53.2122 76.741 53.8449 76.741C54.4776 76.741 54.9905 76.2208 54.9905 75.5779V67.4364H63.01C63.6427 67.4364 64.1556 66.9162 64.1556 66.2733C64.1556 65.631 63.6427 65.1102 63.01 65.1102H54.9905V56.9687Z" fill="#BB3C0D"/>
</svg>
