<svg width="102" height="64" viewBox="0 0 102 64" fill="none" xmlns="http://www.w3.org/2000/svg">
<path d="M100.475 0.929287C99.8889 0.589162 99.1599 0.565912 98.5515 0.867787C94.3953 2.93047 75.427 12.3441 71.4471 14.3192C69.6585 15.2074 67.5601 15.3087 65.6884 14.5965C62.9521 13.5582 60.0988 13.0317 57.2075 13.0317C55.1682 13.0317 53.1459 13.296 51.188 13.812C49.2254 13.296 47.202 13.0317 45.1635 13.0317C42.262 13.0317 39.401 13.561 36.6598 14.6053C34.8063 15.3124 32.7264 15.2134 30.9531 14.334C26.4748 12.1114 4.44095 1.17397 3.81972 0.867787C3.21124 0.565912 2.48247 0.589162 1.89656 0.929287C1.31064 1.26941 0.953125 1.87691 0.953125 2.53185V31.8793C0.953125 32.5896 1.37304 33.2387 2.03783 33.5563L13.8111 39.1813C14.4194 39.472 15.1417 39.4408 15.7201 39.0992C16.2984 38.7576 16.6506 38.154 16.6506 37.5043V36.52L20.9885 38.8521C19.5953 41.0149 19.8769 43.8915 21.8365 45.7641L21.8758 45.8016C22.9079 46.7878 24.2561 47.3612 25.7015 47.437C25.7796 48.7669 26.3482 50.0753 27.4092 51.0891C28.471 52.1037 29.8416 52.647 31.2345 52.7211C31.3118 54.0523 31.8805 55.362 32.9424 56.3768C34.0042 57.3913 35.3748 57.9349 36.768 58.0088C36.8453 59.3398 37.4141 60.6495 38.4759 61.6643L38.5151 61.7018C40.8058 63.8907 44.533 63.8907 46.8237 61.7018C46.8237 61.7018 51.1549 57.5584 51.1824 57.531L55.5471 61.7018C57.8378 63.8907 61.565 63.8907 63.8557 61.7018L63.8949 61.6643C64.9261 60.6788 65.5261 59.3918 65.6062 58.0118C67.0503 57.9355 68.3972 57.3621 69.4283 56.3768C70.4903 55.362 71.0589 54.0523 71.1363 52.7211C72.5292 52.647 73.8998 52.1037 74.9616 51.0891C76.0235 50.0745 76.5922 48.7648 76.6695 47.4336C78.0627 47.3595 79.4333 46.8162 80.495 45.8016L80.5343 45.7641C82.4849 43.9002 82.7845 41.0247 81.3819 38.8523L85.7206 36.52V37.5043C85.7206 38.9033 87.2636 39.8008 88.5603 39.1813L100.334 33.5563C100.999 33.2387 101.418 32.5894 101.418 31.8793V25.9693C101.418 24.9338 100.54 24.0943 99.456 24.0943C98.3725 24.0943 97.4938 24.9338 97.4938 25.9693V30.7206L89.645 34.4706C89.645 30.4422 89.645 12.2115 89.645 9.5136L97.4938 5.61829V9.09435C97.4938 10.1299 98.3725 10.9693 99.456 10.9693C100.54 10.9693 101.418 10.1299 101.418 9.09435V2.53185C101.418 1.87691 101.061 1.26941 100.475 0.929287ZM12.7264 34.4706L4.87754 30.7206V5.61829L12.7264 9.51322V34.4706ZM24.6509 43.1498L24.6117 43.1123C23.8488 42.3835 23.8488 41.2054 24.6117 40.4764C26.1557 39.001 27.4267 37.7865 28.8893 36.3889C29.6498 35.6622 30.8876 35.6623 31.6478 36.3889L31.687 36.4264C32.4476 37.153 32.4476 38.3355 31.687 39.0621C31.6866 39.0625 31.6864 39.0627 31.686 39.063L27.4094 43.1496C26.6465 43.8788 25.414 43.8788 24.6509 43.1498ZM30.1845 48.4371C29.4242 47.7107 29.424 46.5287 30.184 45.802C30.1842 45.8018 30.1844 45.8016 30.1845 45.8014C30.1849 45.801 30.1851 45.8008 30.1855 45.8005L34.4622 41.7139C35.2229 40.9872 36.4607 40.9873 37.2206 41.7139C37.9812 42.4405 37.9812 43.623 37.2206 44.3498L32.9428 48.4373C32.1823 49.1638 30.9449 49.1638 30.1845 48.4371ZM38.4763 53.7248C37.7159 54.4517 36.4781 54.4513 35.7178 53.7248C34.9572 52.9982 34.9572 51.8157 35.7178 51.0889L39.9956 47.0014C40.756 46.2747 41.9935 46.2747 42.7539 47.0014C43.5144 47.728 43.5144 48.9105 42.7539 49.6371C42.7535 49.6375 42.7533 49.6377 42.7529 49.638L38.4763 53.7248ZM48.3265 54.9623L44.0489 59.0498C43.2886 59.7767 42.0508 59.7765 41.2905 59.0498L41.2512 59.0123C40.4909 58.2859 40.4907 57.1039 41.2506 56.3772C41.2508 56.377 41.251 56.3768 41.2512 56.3766L41.2522 56.3757L45.5288 52.2891C46.2892 51.5624 47.527 51.5624 48.2873 52.2891L48.3267 52.3266C49.0975 53.0633 49.0794 54.2427 48.3265 54.9623ZM77.7597 43.1121L77.7204 43.1496C76.9605 43.8762 75.7233 43.8763 74.9628 43.1502C74.9626 43.15 74.9624 43.1498 74.9622 43.1496C74.9618 43.1492 74.9616 43.149 74.9612 43.1487L70.6846 39.0621C69.9183 38.3299 68.6762 38.3299 67.9094 39.0621C67.1432 39.7943 67.1432 40.9815 67.9094 41.7137L72.187 45.8014C72.9476 46.528 72.9476 47.7105 72.187 48.4371C71.4267 49.1638 70.1891 49.1638 69.4287 48.4371L65.1509 44.3496C64.3845 43.6174 63.142 43.6174 62.3758 44.3496C61.6095 45.0818 61.6095 46.269 62.3758 47.0012L66.6536 51.0887C67.4165 51.8175 67.4165 52.9956 66.6536 53.7246C65.8909 54.4534 64.6582 54.4536 63.8951 53.7246C63.8947 53.7242 63.8945 53.724 63.8941 53.7237L59.6175 49.6371C58.8514 48.9049 57.6094 48.9049 56.8423 49.6371C56.0761 50.3693 56.0761 51.5565 56.8423 52.2887L61.119 56.3755L61.12 56.3764C61.8805 57.103 61.8805 58.2855 61.12 59.0121L61.0807 59.0496C60.3204 59.7765 59.0826 59.7763 58.3222 59.0496L52.8204 53.7923C52.8659 52.2655 52.26 50.7818 51.1013 49.6746L51.0621 49.6371C50.0001 48.6223 48.6297 48.079 47.2365 48.0051C47.1592 46.674 46.5904 45.3643 45.5286 44.3496C44.4669 43.335 43.0963 42.7915 41.7033 42.7176C41.626 41.3863 41.0573 40.0767 39.9954 39.0621C38.9344 38.0483 37.5652 37.5049 36.1734 37.4303C36.0941 36.049 35.4941 34.7608 34.462 33.7746L34.4227 33.7371C32.1264 31.5428 28.4109 31.5424 26.1141 33.7371L23.7248 36.0203L16.6508 32.2172V11.461L29.145 17.6622C31.9315 19.0442 35.2013 19.1993 38.114 18.0883C40.1559 17.3104 42.2751 16.8795 44.4235 16.7985C43.2483 17.5618 42.1466 18.4294 41.139 19.3915L36.7358 23.599C36.3679 23.9505 36.161 24.4275 36.161 24.9248C36.161 25.422 36.3679 25.899 36.7358 26.2506C40.5613 29.9061 46.7858 29.9057 50.6013 26.2598L50.7573 26.1128C51.4667 25.4338 52.5908 25.3755 53.3739 25.9787L55.7223 27.7842C58.8055 30.1555 62.8697 30.8952 66.6049 29.83C68.5764 31.7112 78.4614 41.1531 77.8635 40.5867C78.5224 41.3211 78.48 42.4238 77.7597 43.1121ZM85.7206 32.2172L78.6464 36.0203C74.6843 32.2393 81.8209 39.0435 68.5002 26.3383C67.9337 25.7972 67.0802 25.6395 66.3432 25.9395C63.6175 27.0503 60.4905 26.638 58.1825 24.8627L55.8353 23.0582C53.4881 21.2498 50.1112 21.4242 47.9908 23.4529L47.8358 23.599C46.0266 25.3275 43.3235 25.6937 41.1358 24.6975L43.9131 22.0437C46.0939 19.9613 48.8055 18.4095 51.7567 17.5555C53.5229 17.0421 55.3568 16.7817 57.2075 16.7817C59.6004 16.7817 61.9665 17.2191 64.2381 18.0812C67.1687 19.1961 70.4558 19.0378 73.2562 17.647L85.7206 11.4613V32.2172Z" fill="#BB3C0D"/>
<path d="M99.4559 19.4067C100.54 19.4067 101.418 18.5673 101.418 17.5317C101.418 16.4962 100.54 15.6567 99.4559 15.6567C98.3722 15.6567 97.4937 16.4962 97.4937 17.5317C97.4937 18.5673 98.3722 19.4067 99.4559 19.4067Z" fill="#BB3C0D"/>
</svg>
